<mxfile host="app.diagrams.net" agent="Mozilla/5.0 (Windows NT 10.0; Win64; x64) AppleWebKit/537.36 (KHTML, like Gecko) Chrome/127.0.0.0 Safari/537.36 Edg/127.0.0.0" version="24.7.7">
  <diagram name="Page-1" id="jzl-V2Tsr1LILDYz4Gyq">
    <mxGraphModel dx="756" dy="435" grid="1" gridSize="10" guides="1" tooltips="1" connect="1" arrows="1" fold="1" page="1" pageScale="1" pageWidth="850" pageHeight="1100" background="#c7c3b2" math="0" shadow="0">
      <root>
        <mxCell id="0" />
        <mxCell id="1" parent="0" />
        <mxCell id="o-rHQ58z567HRiCuo5Bd-1" value="&lt;font style=&quot;font-size: 19px;&quot;&gt;Payer&lt;/font&gt;" style="swimlane;html=1;fillColor=#BC6C25;strokeColor=#DDA15E;startSize=30;whiteSpace=wrap;fontColor=#FEFAE0;labelBackgroundColor=none;shadow=0;" parent="1" vertex="1">
          <mxGeometry x="330" y="140" width="260" height="210" as="geometry" />
        </mxCell>
        <mxCell id="o-rHQ58z567HRiCuo5Bd-7" value="&lt;font style=&quot;font-size: 19px; background-color: rgb(0, 0, 255);&quot; color=&quot;#fffefa&quot;&gt;CompanyTypeID&amp;nbsp;&lt;/font&gt;&lt;span style=&quot;color: rgb(255, 254, 250); font-size: 19px; background-color: rgb(0, 0, 255);&quot;&gt;(FK)&lt;/span&gt;" style="text;html=1;align=center;verticalAlign=middle;resizable=0;points=[];autosize=1;strokeColor=none;fillColor=none;fontColor=#FEFAE0;textDirection=ltr;" parent="o-rHQ58z567HRiCuo5Bd-1" vertex="1">
          <mxGeometry x="20" y="100" width="210" height="40" as="geometry" />
        </mxCell>
        <mxCell id="o-rHQ58z567HRiCuo5Bd-8" value="&lt;font color=&quot;#fffefa&quot; style=&quot;font-size: 19px; background-color: rgb(0, 0, 255);&quot;&gt;PayerClassificationId (FK)&lt;/font&gt;" style="text;html=1;align=center;verticalAlign=middle;resizable=0;points=[];autosize=1;strokeColor=none;fillColor=none;fontColor=#FEFAE0;" parent="o-rHQ58z567HRiCuo5Bd-1" vertex="1">
          <mxGeometry y="50" width="240" height="40" as="geometry" />
        </mxCell>
        <mxCell id="o-rHQ58z567HRiCuo5Bd-3" value="&lt;h1&gt;&lt;font color=&quot;#fffefa&quot; style=&quot;font-size: 19px; font-weight: normal; background-color: rgb(0, 0, 255);&quot;&gt;SalesPersonID (FK)&lt;/font&gt;&lt;/h1&gt;" style="text;html=1;align=center;verticalAlign=middle;resizable=0;points=[];autosize=1;strokeColor=none;fillColor=none;fontColor=#FEFAE0;" parent="o-rHQ58z567HRiCuo5Bd-1" vertex="1">
          <mxGeometry x="30" y="140" width="190" height="70" as="geometry" />
        </mxCell>
      </root>
    </mxGraphModel>
  </diagram>
</mxfile>
